<svg version="1" xmlns="http://www.w3.org/2000/svg" width="386.667" height="386.667" viewBox="0 0 290.000000 290.000000"><path d="M140 .8c-9.8 4.4-12 16.6-4.3 23.7l2.2 2L123 52c-8.2 14-15.2 25.9-15.7 26.5-.6.6-12.3 1-31.2 1H45.8l-1.3-3.8c-1.5-4.5-4.1-7.6-7.3-8.8-9.3-3.6-18.4 1.2-19.9 10.5-1.7 10.3 7.9 18.3 18.7 15.4 2.4-.6 3.1.4 14 19.4 6.3 11 12.8 22.4 14.3 25.2 1.6 2.8 3.3 5.6 3.8 6.2.5.6-4.8 10.8-13.7 26.5-8 14-15 25.9-15.6 26.6-.7.8-1.7.9-3.5.2-10.4-3.9-21.5 7.6-17.4 18.3 3.5 9.1 16.6 11.7 23.3 4.6 1.5-1.7 3.1-4.2 3.5-5.7.3-1.4.9-2.8 1.4-3.1.9-.6 60.6-.6 61.2 0 1.9 2.4 29.7 51.5 29.7 52.5 0 .8-.6 1.8-1.4 2.2-2.4 1.3-4.6 6.5-4.6 10.8 0 3 .8 5 3 7.6 3.8 4.7 7.8 6.3 13.5 5.5 10.8-1.7 15.3-15.3 7.6-23.2l-2.8-2.9 14.8-25.5c8.1-14 15.1-26 15.6-26.5.6-.6 12.3-1 31.2-1h30.3l1.3 3.8c1.7 5 3.2 6.7 7.9 8.8 15.1 6.7 27.2-14.5 13.6-24.1-3.1-2.2-8.6-3-13-1.8-2.4.6-3.2-.6-17.8-25.7-15-25.8-15.3-26.5-13.8-29.2.7-1.5 7.1-12.4 14-24.2 6.9-11.7 12.6-21.6 12.6-21.9 0-.3.7-1.4 1.6-2.3 1.3-1.4 2.1-1.6 3.6-.8 2.6 1.4 9.1.6 12.3-1.5 8.9-5.9 8.3-19.5-1.2-24.1-4.2-2-10.2-1.9-13.7.4-3.2 2.2-6.6 6.8-6.6 9.2 0 .9-.6 1.9-1.2 2.1-1.8.6-60.6.4-61.1-.2-.3-.5-3.2-5.5-7.4-13-1.1-1.9-4.1-7.1-6.8-11.5-2.6-4.4-6.1-10.5-7.8-13.5-1.6-3-4.3-7.5-5.8-9.9l-2.7-4.4 2.9-2.9c4.6-4.6 5.1-13.6 1.1-18.4C152.5 1 144.6-1.2 140 .8zM170.1 72c1.1 1.9 2.5 4.4 3.2 5.5.6 1 2.2 3.6 3.5 5.7L179 87l33.4.2 33.4.3-10.5 18c-5.8 9.9-11.6 19.9-13 22.3-1.3 2.4-4 6.9-5.9 10-1.8 3.1-3.4 6.2-3.4 6.9 0 .6 7.4 13.9 16.4 29.5l16.4 28.3-33.7.3-33.6.3-13 22.6c-11.5 20-16.8 29.4-19.5 34.2-.8 1.5-2.7-1.1-8.3-11.1-1.4-2.5-3.6-6.3-4.9-8.5-1.4-2.1-2.7-4.5-3.1-5.3-.4-.8-4.6-8.3-9.4-16.5l-8.8-15-33.6-.5-33.7-.5L60.6 174c9-15.7 16.4-28.8 16.4-29.2 0-.3-2.7-5.2-6-10.8-3.3-5.6-6-10.3-6-10.5 0-.1-3.6-6.5-8.1-14.1-4.4-7.7-9.2-15.8-10.5-18.1L44.1 87l33.7-.2 33.7-.3 14.5-25c8-13.8 15.5-26.8 16.8-28.9l2.3-3.9 11.5 19.9c6.4 11 12.4 21.5 13.5 23.4z"/><path d="M140.9 47.3c-1.9 3.4-8.6 15-14.8 25.8l-11.3 19.6H86.6c-15.4.1-29.1.2-30.3.2-2.1.1-2 .6 2.6 8.3 2.7 4.6 5.8 9.9 6.9 11.8 1.1 1.9 5.7 9.9 10.2 17.8l8.3 14.2-6.3 10.8c-3.4 5.9-7.4 12.7-8.8 15.2-1.3 2.5-4.6 8.2-7.3 12.6-2.6 4.5-5.4 9.5-6.2 11l-1.5 2.9 30.3-.1 30.2-.1 3.9 6.6c2.1 3.6 4.7 8.2 5.7 10.1 1.1 1.9 3.4 6 5.2 9 3.8 6.4 7.2 12.3 11.8 20.2 1.7 3.2 3.4 5.8 3.7 5.8.3 0 7.2-11.7 15.4-25.9l14.9-25.8 30.2.1c33 .1 31.4.4 27.5-5.4-.9-1.4-7.4-12.5-14.4-24.7l-12.7-22.2 2.9-5.3c1.6-2.9 5.3-9.4 8.2-14.3 14.6-25 18.7-32.5 17.6-32.6-.6 0-14.2-.1-30.2-.1l-29.2-.1-2.3-4.3C165.8 75.6 145.4 41 145 41c-.3 0-2.1 2.8-4.1 6.3z"/></svg>