<svg xmlns="http://www.w3.org/2000/svg" width="20.595" height="18.169" viewBox="-37.098 27.926 20.595 18.169"><g fill="#F7F7F7"><circle cx="-25.588" cy="37.638" r="1.062"/><path d="M-29.859 34.764v5.873h8.541v-5.873h-1.639v-.021c0-1.449-1.18-2.63-2.63-2.63a2.638 2.638 0 0 0-2.604 2.272l-.033.236h.978l.031-.172a1.654 1.654 0 0 1 3.282.293v.021h-5.926zm7.564.976v3.921h-6.586V35.74h6.586z"/><path d="M-25.588 27.926a9.079 9.079 0 0 0-8.149 5.068h1.438c1.371-2.281 3.862-3.815 6.711-3.815 4.318 0 7.831 3.514 7.831 7.832 0 4.317-3.513 7.832-7.831 7.832-4.299 0-7.797-3.482-7.829-7.772l1.309 1.309a.625.625 0 1 0 .885-.887l-2.846-2.847-2.846 2.847a.627.627 0 0 0 .886.887l1.356-1.356a9.084 9.084 0 0 0 9.085 9.072 9.084 9.084 0 0 0 9.084-9.084 9.084 9.084 0 0 0-9.084-9.086z"/></g></svg>